<?xml version="1.0" standalone="no"?>
<!DOCTYPE svg PUBLIC "-//W3C//DTD SVG 20010904//EN"
 "http://www.w3.org/TR/2001/REC-SVG-20010904/DTD/svg10.dtd">
<svg version="1.0" xmlns="http://www.w3.org/2000/svg"
 width="512.000000pt" height="512.000000pt" viewBox="0 0 512.000000 512.000000"
 preserveAspectRatio="xMidYMid meet">
<metadata>
Created by potrace 1.11, written by Peter Selinger 2001-2013
</metadata>
<g transform="translate(0.000000,512.000000) scale(0.100000,-0.100000)"
fill="#000000" stroke="none">
<path d="M2460 5117 c-3 -3 -29 -8 -59 -11 -70 -8 -218 -58 -290 -97 -203
-112 -302 -223 -526 -597 -33 -57 -37 -69 -31 -109 4 -29 14 -54 30 -67 18
-18 191 -129 294 -191 10 -5 34 -20 53 -32 39 -25 94 -30 132 -12 24 11 45 40
182 257 108 172 169 214 315 218 36 0 76 -3 90 -9 68 -27 88 -38 123 -69 51
-45 470 -717 457 -733 -5 -6 -56 -40 -112 -75 -57 -34 -125 -77 -153 -95 -27
-18 -76 -49 -108 -69 -92 -58 -117 -138 -71 -227 27 -54 82 -77 269 -115 6 -1
81 -18 167 -38 87 -21 168 -39 180 -42 13 -3 28 -6 33 -8 6 -1 26 -6 45 -10
19 -4 89 -21 156 -36 66 -16 131 -31 145 -34 13 -2 72 -16 131 -29 118 -27
154 -25 207 12 17 13 36 31 42 42 10 20 34 103 43 151 2 12 9 41 14 63 6 22
13 51 16 65 2 14 41 183 86 375 45 193 84 361 86 375 3 14 11 50 19 80 28 111
-2 188 -88 223 -65 28 -102 16 -253 -79 -285 -179 -297 -186 -306 -172 -4 7
-56 90 -114 183 -227 366 -325 520 -360 562 -137 167 -310 274 -529 329 -56
14 -305 30 -315 21z"/>
<path d="M1398 3725 c-2 -2 -250 -60 -553 -130 -302 -70 -563 -133 -580 -140
-81 -34 -115 -146 -68 -226 13 -21 83 -72 236 -167 119 -74 217 -138 217 -142
0 -4 -40 -71 -90 -149 -49 -79 -90 -145 -90 -146 0 -2 -22 -36 -48 -77 -27
-40 -52 -80 -55 -88 -4 -8 -20 -34 -35 -57 -96 -149 -232 -377 -254 -428 -54
-122 -72 -217 -72 -375 1 -149 10 -207 55 -328 101 -276 329 -497 604 -585
131 -42 167 -45 521 -44 l344 2 32 33 33 32 0 250 0 250 -33 32 -32 33 -323 5
c-177 3 -331 9 -342 14 -65 27 -85 39 -117 69 -77 72 -115 172 -105 270 7 60
23 99 69 174 18 29 56 89 84 135 77 125 396 632 400 637 2 2 99 -56 215 -129
216 -135 251 -152 294 -144 111 20 166 111 135 223 -8 29 -128 544 -221 951
-10 47 -23 102 -28 124 -10 42 -52 92 -91 108 -24 10 -95 19 -102 13z"/>
<path d="M4564 2602 c-38 -13 -384 -234 -404 -260 -12 -15 -20 -40 -20 -65 0
-39 36 -102 262 -459 61 -96 78 -151 74 -236 -5 -110 -79 -222 -182 -272 l-49
-25 -522 -3 -523 -3 -1 253 c0 169 -4 264 -12 287 -25 71 -124 117 -199 92
-23 -8 -163 -141 -465 -444 -378 -378 -432 -437 -438 -469 -17 -92 -28 -79
418 -527 227 -227 429 -426 449 -441 31 -23 46 -27 92 -26 60 2 93 20 130 70
20 26 21 43 24 297 l3 269 507 1 c524 1 560 2 652 21 30 7 57 12 60 13 65 13
204 79 290 138 65 44 190 172 239 245 77 115 140 269 159 392 4 25 7 101 6
170 -1 152 -24 254 -88 385 -40 84 -321 541 -349 569 -12 12 -74 37 -86 35 -3
-1 -15 -4 -27 -7z"/>
</g>
</svg>
